<svg xmlns="http://www.w3.org/2000/svg">
    <symbol viewBox="0 0 13 24" id="carousel-arrow-left" fill="none">
        <path d="M12 23L1 12L12 0.999985" stroke="currentColor" stroke-width="2" stroke-linecap="round"
              stroke-linejoin="round"/>
    </symbol>
    <symbol viewBox="0 0 13 24" id="carousel-arrow-right" fill="none">
        <path d="M12 23L1 12L12 0.999985" stroke="currentColor" stroke-width="2" stroke-linecap="round"
              stroke-linejoin="round"/>
    </symbol>
    <symbol viewBox="0 0 75 67" id="step-triangle" fill="none">
        <path d="M29.2241 5.23313C32.9014 -1.07772 42.0986 -1.07771 45.7759 5.23315L73.2059 52.3075C76.8778 58.6091 72.2926 66.5 64.9299 66.5H10.07C2.70741 66.5 -1.87779 58.6091 1.79413 52.3075L29.2241 5.23313Z"
              fill="white" stroke="#41456B"/>
    </symbol>
    <symbol viewBox="0 0 70 70" id="vehicle-delivery" fill="none">
        <path fill-rule="evenodd" clip-rule="evenodd"
              d="M26.2387 13.2703C25.7093 12.964 25.0401 12.8957 24.4113 13.1814L8.17278 20.5585C7.45858 20.8829 7 21.5949 7 22.3794V54.8288C7 56.241 8.42398 57.2084 9.73684 56.6881L26.2624 50.139C26.339 50.1818 26.4189 50.2199 26.502 50.2528L42.7405 56.6881C43.346 56.928 43.9752 56.8516 44.4774 56.5609C44.9795 56.8516 45.6087 56.928 46.2142 56.6881L62.4527 50.2528C63.2152 49.9506 63.7159 49.2136 63.7159 48.3935V15.0023C63.7159 13.5479 62.2128 12.5799 60.8887 13.1814L44.6501 20.5585C44.5907 20.5854 44.5331 20.6151 44.4774 20.6473C44.4216 20.6151 44.364 20.5854 44.3046 20.5585L28.0661 13.1814C27.4372 12.8957 26.7681 12.964 26.2387 13.2703ZM27.2388 34.3438L27.5378 34.4639C28.0503 34.6699 28.6326 34.4214 28.8386 33.909C29.0445 33.3965 28.796 32.8141 28.2836 32.6082L27.2388 32.1883V15.0023L43.4774 22.3794V38.7143L41.9625 38.1055C41.45 37.8996 40.8677 38.148 40.6617 38.6605C40.4558 39.1729 40.7042 39.7553 41.2167 39.9613L43.4774 40.8698V54.8288L27.2388 48.3935V34.3438ZM45.4774 22.3794V38.3793L45.8447 38.2606C46.3703 38.0909 46.934 38.3793 47.1037 38.9048C47.2735 39.4303 46.9851 39.994 46.4595 40.1638L45.4774 40.4811V54.8288L61.7159 48.3935V15.0023L45.4774 22.3794ZM25.2385 31.6966V15.0023L9 22.3794L8.58639 21.4689L9 22.3794V54.8288L25.2385 48.3935V33.8051L24.54 34.0384C24.0161 34.2133 23.4497 33.9304 23.2747 33.4066C23.0998 32.8827 23.3827 32.3163 23.9065 32.1413L25.2385 31.6966ZM21.7247 34.9784C22.2486 34.8035 22.5314 34.2371 22.3565 33.7132C22.1816 33.1894 21.6151 32.9065 21.0913 33.0814L19.6836 33.5514C19.6078 33.5767 19.5371 33.6102 19.4721 33.6506C18.854 32.6595 17.754 32 16.5 32C14.567 32 13 33.567 13 35.5C13 37.433 14.567 39 16.5 39C18.4329 39 19.9999 37.4331 20 35.5002C20.1051 35.5003 20.2119 35.4836 20.3171 35.4485L21.7247 34.9784ZM32.8432 34.4406C32.3308 34.2347 31.7484 34.4832 31.5425 34.9956C31.3365 35.5081 31.585 36.0904 32.0974 36.2964L36.6571 38.1288C37.1695 38.3348 37.7519 38.0863 37.9578 37.5738C38.1638 37.0614 37.9153 36.479 37.4029 36.2731L32.8432 34.4406ZM53.3078 37.9515C53.8333 37.7818 54.1217 37.2181 53.9519 36.6926C53.7822 36.167 53.2185 35.8786 52.693 36.0484L50.4102 36.7858C49.8847 36.9556 49.5963 37.5192 49.766 38.0448C49.9358 38.5703 50.4995 38.8587 51.025 38.689L53.3078 37.9515ZM16.5 37C17.3284 37 18 36.3284 18 35.5C18 34.6716 17.3284 34 16.5 34C15.6716 34 15 34.6716 15 35.5C15 36.3284 15.6716 37 16.5 37ZM57 29.5C57 29.4915 57 29.4916 56.9983 29.5009C56.9925 29.5323 56.9677 29.6683 56.8599 29.9325C56.7323 30.2454 56.5367 30.6223 56.2852 31.0419C56.0438 31.4447 55.7719 31.8525 55.5 32.237C55.2281 31.8525 54.9562 31.4447 54.7148 31.0419C54.4633 30.6223 54.2677 30.2454 54.1401 29.9325C54.0323 29.6683 54.0075 29.5323 54.0017 29.5009C54 29.4916 54 29.4915 54 29.5C54 28.6716 54.6716 28 55.5 28C56.3284 28 57 28.6716 57 29.5ZM59 29.5C59 30.8637 57.2581 33.2895 56.232 34.6001C55.8549 35.0817 55.1451 35.0817 54.768 34.6001C53.7419 33.2895 52 30.8637 52 29.5C52 27.567 53.567 26 55.5 26C57.433 26 59 27.567 59 29.5Z"
              fill="#41456B"/>
    </symbol>
    <symbol viewBox="0 0 70 70" id="auto-financing" fill="none">
        <path fill-rule="evenodd" clip-rule="evenodd"
              d="M14 13C14 10.7909 15.7909 9 18 9H51C53.2091 9 55 10.7909 55 13V49C55 49.5523 54.5523 50 54 50C53.4477 50 53 49.5523 53 49V13C53 11.8954 52.1046 11 51 11H18C16.8954 11 16 11.8954 16 13V57C16 58.1046 16.8954 59 18 59H38.8875C39.4398 59 39.8875 59.4477 39.8875 60C39.8875 60.5523 39.4398 61 38.8875 61H18C15.7909 61 14 59.2091 14 57V13ZM55.2071 52.2929C55.5976 52.6834 55.5976 53.3166 55.2071 53.7071L47.7071 61.2071C47.3166 61.5976 46.6834 61.5976 46.2929 61.2071L42.2929 57.2071C41.9024 56.8166 41.9024 56.1834 42.2929 55.7929C42.6834 55.4024 43.3166 55.4024 43.7071 55.7929L47 59.0858L53.7929 52.2929C54.1834 51.9024 54.8166 51.9024 55.2071 52.2929ZM21 16C20.4477 16 20 16.4477 20 17C20 17.5523 20.4477 18 21 18H35C35.5523 18 36 17.5523 36 17C36 16.4477 35.5523 16 35 16H21ZM20 27C20 26.4477 20.4477 26 21 26H45C45.5523 26 46 26.4477 46 27C46 27.5523 45.5523 28 45 28H21C20.4477 28 20 27.5523 20 27ZM21 32C20.4477 32 20 32.4477 20 33C20 33.5523 20.4477 34 21 34H41C41.5523 34 42 33.5523 42 33C42 32.4477 41.5523 32 41 32H21ZM20 45C20 44.4477 20.4477 44 21 44H27C27.5523 44 28 44.4477 28 45C28 45.5523 27.5523 46 27 46H21C20.4477 46 20 45.5523 20 45ZM31 44C30.4477 44 30 44.4477 30 45C30 45.5523 30.4477 46 31 46H41C41.5523 46 42 45.5523 42 45C42 44.4477 41.5523 44 41 44H31Z"
              fill="#41456B"/>
    </symbol>
    <symbol viewBox="0 0 70 70" id="huge-inventory" fill="none">
        <path fill-rule="evenodd" clip-rule="evenodd"
              d="M8.17393 44H7C5.34315 44 4 42.6569 4 41V36.5H6C6.55228 36.5 7 36.0523 7 35.5C7 34.9477 6.55228 34.5 6 34.5H4V34.0139C4 33.4216 4.17531 32.8426 4.50385 32.3498L11.1798 22.3359C11.7362 21.5013 12.6729 21 13.6759 21H30V29H26C25.4477 29 25 29.4477 25 30C25 30.5523 25.4477 31 26 31L52 31C52.1403 31 52.2739 30.9711 52.3951 30.9189C52.9229 31.1221 53.4769 31.262 54.0458 31.3328L63.3704 32.493C64.5367 32.6381 65.4772 33.4401 65.8394 34.5H63.5C62.9477 34.5 62.5 34.9477 62.5 35.5C62.5 36.0523 62.9477 36.5 63.5 36.5H66V41C66 42.6569 64.6569 44 63 44H61.8261C61.1489 41.1333 58.5736 39 55.5 39C52.4264 39 49.8511 41.1333 49.1739 44H20.8261C20.1489 41.1333 17.5736 39 14.5 39C11.4264 39 8.8511 41.1333 8.17393 44ZM32 29L49.6402 29L43.0228 21.9473C42.4557 21.3429 41.6639 21 40.8351 21H32V29ZM63 46H61.9811C61.7257 49.3562 58.9216 52 55.5 52C52.0784 52 49.2743 49.3562 49.0189 46H20.9811C20.7257 49.3562 17.9216 52 14.5 52C11.0784 52 8.27426 49.3562 8.01894 46H7C4.23858 46 2 43.7614 2 41V34.0139C2 33.0268 2.29219 32.0617 2.83975 31.2404L9.51567 21.2265C10.443 19.8355 12.0042 19 13.6759 19H40.8351C42.2164 19 43.5362 19.5715 44.4813 20.5788L51.2639 27.8075C52.0627 28.6589 53.1342 29.2039 54.2928 29.3481L63.6174 30.5083C66.1208 30.8197 68 32.9473 68 35.47V41C68 43.7614 65.7614 46 63 46ZM14.5 50C16.9853 50 19 47.9853 19 45.5C19 43.0147 16.9853 41 14.5 41C12.0147 41 10 43.0147 10 45.5C10 47.9853 12.0147 50 14.5 50ZM55.5 50C57.9853 50 60 47.9853 60 45.5C60 43.0147 57.9853 41 55.5 41C53.0147 41 51 43.0147 51 45.5C51 47.9853 53.0147 50 55.5 50ZM33 34.5C32.4477 34.5 32 34.9477 32 35.5C32 36.0523 32.4477 36.5 33 36.5H36C36.5523 36.5 37 36.0523 37 35.5C37 34.9477 36.5523 34.5 36 34.5H33Z"
              fill="#41456B"/>
    </symbol>
    <symbol viewBox="0 0 17 17" id="instagram" fill="none">
        <path d="M8.85755 4.69531C6.59948 4.69531 4.72852 6.53402 4.72852 8.82434C4.72852 11.1147 6.56723 12.9534 8.85755 12.9534C11.1479 12.9534 12.9866 11.0824 12.9866 8.82434C12.9866 6.56628 11.1156 4.69531 8.85755 4.69531ZM8.85755 11.4695C7.40594 11.4695 6.21239 10.276 6.21239 8.82434C6.21239 7.37273 7.40594 6.17918 8.85755 6.17918C10.3092 6.17918 11.5027 7.37273 11.5027 8.82434C11.5027 10.276 10.3092 11.4695 8.85755 11.4695Z"
              fill="#7481FF"/>
        <path d="M13.1503 5.53405C13.667 5.53405 14.0858 5.11522 14.0858 4.59857C14.0858 4.08192 13.667 3.66309 13.1503 3.66309C12.6337 3.66309 12.2148 4.08192 12.2148 4.59857C12.2148 5.11522 12.6337 5.53405 13.1503 5.53405Z"
              fill="#7481FF"/>
        <path d="M15.5671 2.17951C14.7284 1.30855 13.5348 0.856934 12.18 0.856934H5.53484C2.72839 0.856934 0.857422 2.7279 0.857422 5.53435V12.1473C0.857422 13.5344 1.30903 14.7279 2.21226 15.5989C3.08323 16.4376 4.24452 16.8569 5.5671 16.8569H12.1477C13.5348 16.8569 14.6961 16.4053 15.5348 15.5989C16.4058 14.7602 16.8574 13.5666 16.8574 12.1795V5.53435C16.8574 4.17951 16.4058 3.01822 15.5671 2.17951ZM15.4381 12.1795C15.4381 13.1795 15.0832 13.986 14.5026 14.5344C13.9219 15.0827 13.1155 15.3731 12.1477 15.3731H5.5671C4.59936 15.3731 3.79291 15.0827 3.21226 14.5344C2.63162 13.9537 2.34129 13.1473 2.34129 12.1473V5.53435C2.34129 4.56661 2.63162 3.76016 3.21226 3.17951C3.76065 2.63113 4.59936 2.3408 5.5671 2.3408H12.2123C13.18 2.3408 13.9865 2.63113 14.5671 3.21177C15.1155 3.79242 15.4381 4.59887 15.4381 5.53435V12.1795Z"
              fill="#7481FF"/>
    </symbol>
    <symbol viewBox="0 0 9 16" id="facebook" fill="none">
        <path d="M5.95546 15.4947V8.60818H8.2855L8.86801 5.73879H5.95546V4.59103C5.95546 3.44327 6.53914 2.86939 7.70299 2.86939H8.86801V0C8.2855 0 7.56319 0 6.53797 0C4.39726 0 3.04292 1.65334 3.04292 4.01715V5.73879H0.712891V8.60818H3.04292V15.4947H5.95546Z"
              fill="#7481FF"/>
    </symbol>
    <symbol viewBox="0 0 18 13" id="youtube" fill="none">
        <path d="M17.3847 2.2775C17.1902 1.55457 16.6203 0.984687 15.8974 0.790023C14.5769 0.428711 9.29471 0.428711 9.29471 0.428711C9.29471 0.428711 4.01273 0.428711 2.69221 0.776325C1.98328 0.970783 1.39939 1.55467 1.20493 2.2775C0.857422 3.59792 0.857422 6.33629 0.857422 6.33629C0.857422 6.33629 0.857422 9.08847 1.20493 10.3951C1.3996 11.1179 1.96938 11.6878 2.69231 11.8825C4.02663 12.2439 9.29492 12.2439 9.29492 12.2439C9.29492 12.2439 14.5769 12.2439 15.8974 11.8963C16.6204 11.7017 17.1902 11.1318 17.3849 10.409C17.7323 9.08847 17.7323 6.3502 17.7323 6.3502C17.7323 6.3502 17.7462 3.59792 17.3847 2.2775ZM7.61298 8.8661V3.80649L12.0054 6.33629L7.61298 8.8661Z"
              fill="#7481FF"/>
    </symbol>
    <symbol viewBox="0 0 18 21" id="play-btn" fill="none">
        <path d="M16.4268 8.76803C17.7601 9.53783 17.7601 11.4623 16.4268 12.2321L3.03651 19.963C1.70318 20.7328 0.0365133 19.7705 0.0365134 18.2309L0.0365141 2.76921C0.0365141 1.22961 1.70318 0.267366 3.03651 1.03717L16.4268 8.76803Z"
              fill="#7481FF"/>
    </symbol>
    <symbol viewBox="0 0 24 24" id="cross-btn" fill="none">
        <path d="M1 1L22.9999 23.0003" stroke="currentColor" stroke-width="2" stroke-linecap="round"
              stroke-linejoin="round"/>
        <path d="M23 1L1.00012 23.0003" stroke="currentColor" stroke-width="2" stroke-linecap="round"
              stroke-linejoin="round"/>
    </symbol>

    <symbol viewBox="0 0 60 60" id="rates-1" fill="none">
        <g clip-path="url(#clip0_1063_3814)">
            <rect width="60" height="60" fill="white"/>
            <circle cx="30" cy="30" r="29" stroke="#41456B" stroke-width="2"/>
            <path d="M27.9475 22.3685C27.9475 25.159 25.6854 27.4211 22.8949 27.4211C20.1044 27.4211 17.8423 25.159 17.8423 22.3685C17.8423 19.578 20.1044 17.3159 22.8949 17.3159C25.6854 17.3159 27.9475 19.578 27.9475 22.3685Z"
                  stroke="#41456B" stroke-width="2"/>
            <path d="M42.157 37.6315C42.157 40.422 39.8949 42.6842 37.1044 42.6842C34.3139 42.6842 32.0518 40.422 32.0518 37.6315C32.0518 34.8411 34.3139 32.5789 37.1044 32.5789C39.8949 32.5789 42.157 34.8411 42.157 37.6315Z"
                  stroke="#41456B" stroke-width="2"/>
            <path d="M37.3671 17.8948L21.8408 42.1053" stroke="#41456B" stroke-width="2" stroke-linecap="round"
                  stroke-linejoin="round"/>
        </g>
        <defs>
            <clipPath id="clip0_1063_3814">
                <rect width="60" height="60" fill="white"/>
            </clipPath>
        </defs>
    </symbol>

    <symbol viewBox="0 0 60 60" id="rates-2" fill="none">
        <g clip-path="url(#clip0_1063_3842)">
            <rect width="60" height="60" fill="white"/>
            <circle cx="30" cy="30" r="29" stroke="#41456B" stroke-width="2"/>
            <path d="M29.9992 9.67737V30L19.354 42.0967" stroke="#41456B" stroke-width="2" stroke-linecap="round"
                  stroke-linejoin="round"/>
        </g>
        <defs>
            <clipPath id="clip0_1063_3842">
                <rect width="60" height="60" fill="white"/>
            </clipPath>
        </defs>
    </symbol>

    <symbol viewBox="0 0 29 29" id="cross-modal-bold" fill="none">
        <path fill-rule="evenodd" clip-rule="evenodd"
              d="M1.41879 24.5858C0.637746 25.3669 0.637746 26.6332 1.41879 27.4143C2.19984 28.1953 3.46617 28.1953 4.24722 27.4143L14.4188 17.2427L24.7533 27.5772C25.5344 28.3583 26.8007 28.3583 27.5817 27.5772C28.3628 26.7962 28.3628 25.5298 27.5817 24.7488L17.2472 14.4143L27.5817 4.07974C28.3628 3.29869 28.3628 2.03236 27.5817 1.25131C26.8007 0.470264 25.5344 0.470265 24.7533 1.25131L14.4188 11.5858L4.24722 1.41425C3.46617 0.633204 2.19984 0.633204 1.41879 1.41425C0.637745 2.1953 0.637746 3.46163 1.41879 4.24268L11.5904 14.4143L1.41879 24.5858Z"
              fill="#41456B"/>
    </symbol>

    <symbol viewBox="0 0 17 17" id="instagram-small" fill="none">
        <path d="M8.8573 4.69556C6.59924 4.69556 4.72827 6.53427 4.72827 8.82459C4.72827 11.1149 6.56698 12.9536 8.8573 12.9536C11.1476 12.9536 12.9863 11.0827 12.9863 8.82459C12.9863 6.56652 11.1154 4.69556 8.8573 4.69556ZM8.8573 11.4697C7.40569 11.4697 6.21214 10.2762 6.21214 8.82459C6.21214 7.37297 7.40569 6.17943 8.8573 6.17943C10.3089 6.17943 11.5025 7.37297 11.5025 8.82459C11.5025 10.2762 10.3089 11.4697 8.8573 11.4697Z"
              fill="white"/>
        <path d="M13.1501 5.5343C13.6667 5.5343 14.0856 5.11547 14.0856 4.59881C14.0856 4.08216 13.6667 3.66333 13.1501 3.66333C12.6334 3.66333 12.2146 4.08216 12.2146 4.59881C12.2146 5.11547 12.6334 5.5343 13.1501 5.5343Z"
              fill="white"/>
        <path d="M15.5669 2.17976C14.7281 1.30879 13.5346 0.857178 12.1798 0.857178H5.5346C2.72815 0.857178 0.857178 2.72815 0.857178 5.5346V12.1475C0.857178 13.5346 1.30879 14.7281 2.21202 15.5991C3.08298 16.4378 4.24427 16.8572 5.56686 16.8572H12.1475C13.5346 16.8572 14.6959 16.4056 15.5346 15.5991C16.4056 14.7604 16.8572 13.5669 16.8572 12.1798V5.5346C16.8572 4.17976 16.4056 3.01847 15.5669 2.17976ZM15.4378 12.1798C15.4378 13.1798 15.083 13.9862 14.5023 14.5346C13.9217 15.083 13.1152 15.3733 12.1475 15.3733H5.56686C4.59911 15.3733 3.79266 15.083 3.21202 14.5346C2.63137 13.954 2.34105 13.1475 2.34105 12.1475V5.5346C2.34105 4.56685 2.63137 3.7604 3.21202 3.17976C3.7604 2.63137 4.59911 2.34105 5.56686 2.34105H12.212C13.1798 2.34105 13.9862 2.63137 14.5669 3.21202C15.1152 3.79266 15.4378 4.59911 15.4378 5.5346V12.1798Z"
              fill="white"/>
    </symbol>

    <symbol viewBox="0 0 9 16" id="facebook-small" fill="none">
        <path d="M5.95571 15.4945V8.60793H8.28574L8.86825 5.73854H5.95571V4.59078C5.95571 3.44303 6.53938 2.86915 7.70323 2.86915H8.86825V-0.000244141C8.28574 -0.000244141 7.56343 -0.000244141 6.53822 -0.000244141C4.3975 -0.000244141 3.04317 1.6531 3.04317 4.01691V5.73854H0.713135V8.60793H3.04317V15.4945H5.95571Z"
              fill="white"/>
    </symbol>

    <symbol viewBox="0 0 18 13" id="youtube-small" fill="none">
        <path d="M17.3845 2.27726C17.19 1.55432 16.62 0.984443 15.8972 0.789779C14.5767 0.428467 9.29447 0.428467 9.29447 0.428467C9.29447 0.428467 4.01249 0.428467 2.69196 0.776081C1.98304 0.970538 1.39915 1.55443 1.20469 2.27726C0.857178 3.59768 0.857178 6.33605 0.857178 6.33605C0.857178 6.33605 0.857178 9.08822 1.20469 10.3948C1.39935 11.1177 1.96913 11.6876 2.69207 11.8822C4.02639 12.2436 9.29468 12.2436 9.29468 12.2436C9.29468 12.2436 14.5767 12.2436 15.8972 11.896C16.6201 11.7015 17.19 11.1316 17.3847 10.4087C17.7321 9.08822 17.7321 6.34995 17.7321 6.34995C17.7321 6.34995 17.746 3.59768 17.3845 2.27726ZM7.61274 8.86585V3.80624L12.0051 6.33605L7.61274 8.86585Z"
              fill="white"/>
    </symbol>

    <symbol viewBox="0 0 16 16" id="email-small" fill="none">
        <path d="M1 5.71429L7.47785 9.68031C7.7983 9.87651 8.2017 9.87651 8.52215 9.68031L15 5.71429M1 5.71429V14C1 14.5523 1.44772 15 2 15H14C14.5523 15 15 14.5523 15 14V5.71429M1 5.71429L7.4414 1.3762C7.77908 1.14878 8.22092 1.14878 8.5586 1.3762L15 5.71429"
              stroke="white" stroke-width="2" stroke-linecap="round" stroke-linejoin="round"/>
    </symbol>

    <symbol viewBox="0 0 24 24" id="user" fill="none">
        <g clip-path="url(#clip0_7917_1637)">
            <mask id="path-1-inside-1_7917_1637" fill="white">
                <path d="M20 21.5294C20.5523 21.5294 21.0058 21.0803 20.9445 20.5314C20.7192 18.5116 19.8149 16.6164 18.364 15.1655C16.6761 13.4776 14.3869 12.5294 12 12.5294C9.61305 12.5294 7.32387 13.4776 5.63604 15.1654C4.18514 16.6164 3.28078 18.5116 3.05548 20.5314C2.99425 21.0803 3.44772 21.5294 4 21.5294L12 21.5294H20Z"/>
            </mask>
            <path d="M20 21.5294C20.5523 21.5294 21.0058 21.0803 20.9445 20.5314C20.7192 18.5116 19.8149 16.6164 18.364 15.1655C16.6761 13.4776 14.3869 12.5294 12 12.5294C9.61305 12.5294 7.32387 13.4776 5.63604 15.1654C4.18514 16.6164 3.28078 18.5116 3.05548 20.5314C2.99425 21.0803 3.44772 21.5294 4 21.5294L12 21.5294H20Z"
                  stroke="#606276" stroke-width="2" mask="url(#path-1-inside-1_7917_1637)"/>
            <circle cx="12.0001" cy="7.76471" r="3.76471" stroke="#606276" stroke-width="2"/>
        </g>
        <defs>
            <clipPath id="clip0_7917_1637">
                <rect width="24" height="24" fill="white"/>
            </clipPath>
        </defs>
    </symbol>

    <symbol viewBox="0 0 24 24" id="phone" fill="none">
        <rect x="7" y="3" width="10" height="18" rx="1" stroke="#606276" stroke-width="2" stroke-linecap="round"
              stroke-linejoin="round"/>
        <line x1="9.5" y1="4.5" x2="14.5" y2="4.5" stroke="#606276" stroke-linecap="round" stroke-linejoin="round"/>
        <circle cx="12" cy="18" r="1" fill="#606276"/>
    </symbol>

    <symbol viewBox="0 0 24 24" id="letter" fill="none">
        <path d="M3 9.06122L11.4778 14.2517C11.7983 14.4479 12.2017 14.4479 12.5222 14.2517L21 9.06122M3 9.06122V20C3 20.5523 3.44772 21 4 21H20C20.5523 21 21 20.5523 21 20V9.06122M3 9.06122L11.4414 3.3762C11.7791 3.14878 12.2209 3.14878 12.5586 3.3762L21 9.06122"
              stroke="#606276" stroke-width="2" stroke-linecap="round" stroke-linejoin="round"/>
    </symbol>

    <symbol viewBox="0 0 70 70" id="success-tick" fill="none">
        <circle cx="35" cy="35" r="33.5" stroke="#7481FF" stroke-width="3"/>
        <path d="M21 37.2925L32.3077 47.6L50.4 21" stroke="#7481FF" stroke-width="3" stroke-linecap="round"
              stroke-linejoin="round"/>
    </symbol>

    <symbol viewBox="0 0 24 24" id="arrow-back" fill="none">
        <path d="M13.9995 20L5.99951 12L13.9995 4" stroke="currentColor" stroke-width="2" stroke-linecap="round"
              stroke-linejoin="round"/>
    </symbol>

    <symbol viewBox="0 0 24 24" id="search" fill="none">
        <path fill-rule="evenodd" clip-rule="evenodd"
              d="M18.9184 10.4535C18.9184 15.1212 15.1322 18.907 10.4592 18.907C5.78629 18.907 2 15.1212 2 10.4535C2 5.78579 5.78629 2 10.4592 2C15.1322 2 18.9184 5.78579 18.9184 10.4535ZM17.1074 18.5239C15.3001 20.0128 12.9841 20.907 10.4592 20.907C4.68275 20.907 0 16.2268 0 10.4535C0 4.68018 4.68275 0 10.4592 0C16.2357 0 20.9184 4.68018 20.9184 10.4535C20.9184 12.9832 20.0194 15.3031 18.5231 17.1113L23.707 22.2923C24.0977 22.6827 24.0978 23.3159 23.7074 23.7065C23.317 24.0972 22.6838 24.0973 22.2932 23.7069L17.1074 18.5239Z"
              fill="#41456B"/>
    </symbol>

    <symbol viewBox="0 0 24 24" id="share" fill="none">
        <path d="M11 1H4C2.34315 1 1 2.34315 1 4V20C1 21.6569 2.34315 23 4 23H20C21.6569 23 23 21.6569 23 20V13"
              stroke="#41456B" stroke-width="2" stroke-linecap="round" stroke-linejoin="round"/>
        <path d="M15.5 1H22.5M22.5 1V8.5M22.5 1L12.5 11" stroke="#41456B" stroke-width="2" stroke-linecap="round"
              stroke-linejoin="round"/>
    </symbol>

    <symbol viewBox="0 0 90 30" id="sedan" fill="none">
        <path fill-rule="evenodd" clip-rule="evenodd" d="M65.4252 11.4386L65.298 11.8733L65.3706 12.3205L66.7246 20.6613V23.8984H59.3693C59.2835 24.6063 59.0841 25.2792 58.79 25.8984H66.7246C67.8292 25.8984 68.7246 25.003 68.7246 23.8984V20.5L67.3448 12L68.069 9.52391C68.4135 8.34599 67.6256 7.1385 66.4087 6.97936L61.7754 6.37347C61.6666 6.35924 61.5667 6.30599 61.4943 6.22362C58.0156 2.26746 53.0024 0 47.7344 0H34.0224C31.8645 0 29.7465 0.581409 27.891 1.68309L18.933 7.00192C18.624 7.18539 18.2713 7.28221 17.9119 7.28221H12.8448H12.5626C6.09099 7.28221 0.844758 12.5284 0.844758 19V22L0.31971 22.8187C-0.533932 24.1499 0.421931 25.8984 2.00326 25.8984H11.6417C12.6874 28.0997 14.9311 29.6217 17.5303 29.6217C21.1288 29.6217 24.046 26.7045 24.046 23.106C24.046 19.5075 21.1288 16.5903 17.5303 16.5903C13.9318 16.5903 11.0146 19.5075 11.0146 23.106C11.0146 23.3742 11.0309 23.6387 11.0623 23.8984H2.00326L2.52831 23.0796L2.84476 22.5862V22V19C2.84476 13.633 7.19556 9.28221 12.5626 9.28221H12.8448H17.9119C18.6306 9.28221 19.3361 9.08856 19.9541 8.72163L28.9121 3.4028C30.4586 2.48458 32.2239 2 34.0224 2H47.7344C52.4274 2 56.8934 4.01996 59.9924 7.54429C60.385 7.99081 60.9265 8.27948 61.5161 8.35658L66.1494 8.96248L65.4252 11.4386ZM47.0125 25.8984C48.0583 28.0997 50.302 29.6217 52.9012 29.6217C56.4997 29.6217 59.4169 26.7045 59.4169 23.106C59.4169 19.5075 56.4997 16.5903 52.9012 16.5903C49.3027 16.5903 46.3855 19.5075 46.3855 23.106C46.3855 23.3742 46.4017 23.6387 46.4332 23.8984H23.9984C23.9126 24.6063 23.7132 25.2792 23.4191 25.8984H47.0125ZM29.7949 10.0054C29.2426 10.0054 28.7949 10.4531 28.7949 11.0054C28.7949 11.5577 29.2426 12.0054 29.7949 12.0054H33.5182C34.0704 12.0054 34.5182 11.5577 34.5182 11.0054C34.5182 10.4531 34.0704 10.0054 33.5182 10.0054H29.7949ZM17.5303 27.6217C20.0242 27.6217 22.046 25.5999 22.046 23.106C22.046 20.6121 20.0242 18.5903 17.5303 18.5903C15.0364 18.5903 13.0146 20.6121 13.0146 23.106C13.0146 25.5999 15.0364 27.6217 17.5303 27.6217ZM57.4169 23.106C57.4169 25.5999 55.3951 27.6217 52.9012 27.6217C50.4073 27.6217 48.3855 25.5999 48.3855 23.106C48.3855 20.6121 50.4073 18.5903 52.9012 18.5903C55.3951 18.5903 57.4169 20.6121 57.4169 23.106ZM52.9014 25.106C54.0059 25.106 54.9014 24.2105 54.9014 23.106C54.9014 22.0014 54.0059 21.106 52.9014 21.106C51.7968 21.106 50.9014 22.0014 50.9014 23.106C50.9014 24.2105 51.7968 25.106 52.9014 25.106ZM19.5303 23.106C19.5303 24.2105 18.6349 25.106 17.5303 25.106C16.4257 25.106 15.5303 24.2105 15.5303 23.106C15.5303 22.0014 16.4257 21.106 17.5303 21.106C18.6349 21.106 19.5303 22.0014 19.5303 23.106Z" fill="#41456B"/>
        <path d="M76.8447 9H83.7921" stroke="#41456B" stroke-width="2" stroke-linecap="round" stroke-linejoin="round"/>
        <path d="M76.8447 15H88.8447" stroke="#41456B" stroke-width="2" stroke-linecap="round" stroke-linejoin="round"/>
        <path d="M76.8447 21H80.6342" stroke="#41456B" stroke-width="2" stroke-linecap="round" stroke-linejoin="round"/>
    </symbol>

    <symbol viewBox="0 0 11 11" id="filter-cross" fill="none">
        <path d="M1.375 1.375L9.62496 9.62513" stroke="#7481FF" stroke-width="2" stroke-linecap="round" stroke-linejoin="round"/>
        <path d="M9.625 1.375L1.37504 9.62513" stroke="#7481FF" stroke-width="2" stroke-linecap="round" stroke-linejoin="round"/>
    </symbol>
</svg>




