<svg width="82" height="24" viewBox="0 0 82 24" fill="none" xmlns="http://www.w3.org/2000/svg">
<path d="M44.6965 20.1744L39.9271 5.96762H42.9714L46.4419 16.8866L49.8922 5.96762H52.9568L48.1671 20.1744H44.6965ZM63.0522 20.1744L62.1998 17.6172H56.5373L55.6849 20.1744H52.6609L57.6333 5.96762H61.1038L66.0965 20.1744H63.0522ZM57.4303 14.9991H61.3271L59.3787 9.1946L57.4303 14.9991ZM74.1046 20.4586C71.9669 20.4586 70.2012 19.7482 68.8075 18.3276C67.4139 16.9069 66.7171 15.1547 66.7171 13.071C66.7171 10.9738 67.4139 9.22166 68.8075 7.81451C70.2012 6.39382 71.9669 5.68348 74.1046 5.68348C75.39 5.68348 76.5739 5.98791 77.6564 6.59678C78.7523 7.19211 79.6047 8.00393 80.2136 9.03223L77.7984 10.4326C77.4466 9.7967 76.946 9.30284 76.2966 8.95105C75.6471 8.58573 74.9165 8.40307 74.1046 8.40307C72.7246 8.40307 71.6083 8.83604 70.7559 9.70198C69.917 10.5679 69.4976 11.6909 69.4976 13.071C69.4976 14.4376 69.917 15.5538 70.7559 16.4198C71.6083 17.2857 72.7246 17.7187 74.1046 17.7187C74.9165 17.7187 75.6471 17.5428 76.2966 17.191C76.9595 16.8257 77.4602 16.3318 77.7984 15.7094L80.2136 17.1098C79.6047 18.1381 78.7591 18.9567 77.6766 19.5656C76.5942 20.1609 75.4036 20.4586 74.1046 20.4586Z" fill="#7380FF"/>
<path fill-rule="evenodd" clip-rule="evenodd" d="M14.418 9.06525H5.40649L0 3.62063e-09H6.44489C7.22734 -3.13319e-05 7.99642 0.203338 8.67699 0.590239C9.35755 0.977139 9.92632 1.53434 10.3277 2.20739L14.418 9.06525Z" fill="#D2D6FF"/>
<path fill-rule="evenodd" clip-rule="evenodd" d="M25.8556 2.17113L21.6555 9.06525H5.37012L12.2634 20.4778C12.6665 21.1449 13.2345 21.6966 13.9125 22.0794C14.5906 22.4623 15.3557 22.6633 16.134 22.6631H20.0756C20.8595 22.663 21.6299 22.4588 22.3112 22.0705C22.9926 21.6821 23.5616 21.123 23.9623 20.448L30.7187 9.06525L36.2415 4.93329e-10H29.7165C28.9412 -1.14602e-05 28.1789 0.199663 27.5028 0.579858C26.8268 0.960054 26.2595 1.50801 25.8556 2.17113Z" fill="#7380FF"/>
</svg>
