<svg width="28" height="27" viewBox="0 0 28 27" fill="none" xmlns="http://www.w3.org/2000/svg">
<path fill-rule="evenodd" clip-rule="evenodd" d="M5.40826 0.966805C3.54996 2.25904 2.88358 4.77634 1.55082 9.81093L1.48941 10.0429C0.156644 15.0775 -0.509738 17.5948 0.461257 19.6544C0.609056 19.9679 0.782656 20.2686 0.980244 20.5533C2.27834 22.4241 4.79155 23.1057 9.81798 24.4689C14.8444 25.8322 17.3576 26.5138 19.4059 25.5507C19.7177 25.4041 20.0166 25.2315 20.2994 25.0348C21.3665 24.2928 22.0406 23.1468 22.6735 21.3522H21.2149C21.1078 21.3522 21.0211 21.2642 21.0211 21.1572C21.0211 20.9773 20.7854 20.881 20.6434 20.9913C20.1493 21.3752 19.5215 21.5672 18.7599 21.5672C17.7583 21.5672 16.9034 21.1782 16.1952 20.4002C15.487 19.612 15.1329 18.6498 15.1329 17.5135C15.1329 16.3773 15.487 15.4202 16.1952 14.6422C16.9034 13.854 17.7583 13.4599 18.7599 13.4599C19.5215 13.4599 20.1493 13.6518 20.6434 14.0358C20.7854 14.1461 21.0211 14.0532 21.0211 13.8734V10.7977C21.0211 10.6906 21.1078 10.6039 21.2149 10.6039H23.1036C23.2106 10.6039 23.2974 10.6906 23.2974 10.7977V19.3612C23.563 18.4341 23.8412 17.383 24.1569 16.1907L24.2183 15.9587C25.551 10.9241 26.2174 8.40683 25.2464 6.34724C25.0986 6.03374 24.925 5.73305 24.7274 5.44829C23.4293 3.57755 20.9161 2.89593 15.8897 1.53268C10.8633 0.169432 8.35006 -0.512192 6.30177 0.450954C5.98999 0.597558 5.69112 0.770109 5.40826 0.966805ZM12.7084 12.9992C13.0827 12.9992 13.4014 12.8662 13.6644 12.6C13.9376 12.3236 14.0742 11.9961 14.0742 11.6173C14.0742 11.2386 13.9376 10.9161 13.6644 10.6499C13.4014 10.3736 13.0827 10.2354 12.7084 10.2354C12.3341 10.2354 12.0103 10.3736 11.7371 10.6499C11.4741 10.9161 11.3426 11.2386 11.3426 11.6173C11.3426 11.9961 11.4741 12.3236 11.7371 12.6C12.0103 12.8662 12.3341 12.9992 12.7084 12.9992ZM11.5702 21.1584C11.5702 21.2655 11.657 21.3522 11.764 21.3522H13.6528C13.7598 21.3522 13.8466 21.2655 13.8466 21.1584V13.8686C13.8466 13.7616 13.7598 13.6748 13.6528 13.6748H11.764C11.657 13.6748 11.5702 13.7616 11.5702 13.8686V21.1584ZM19.2152 19.3868C18.679 19.3868 18.2439 19.2179 17.9101 18.8801C17.5762 18.5423 17.4093 18.0868 17.4093 17.5135C17.4093 16.9403 17.5762 16.4848 17.9101 16.147C18.2439 15.8092 18.679 15.6403 19.2152 15.6403C19.7514 15.6403 20.1864 15.8092 20.5203 16.147C20.8541 16.4848 21.0211 16.9403 21.0211 17.5135C21.0211 18.0868 20.8541 18.5423 20.5203 18.8801C20.1864 19.2179 19.7514 19.3868 19.2152 19.3868Z" fill="white"/>
<path d="M26.5712 21.3531C27.3612 21.3531 27.9978 20.7108 27.9978 19.9136C27.9978 19.1165 27.3612 18.4741 26.5712 18.4741C25.7813 18.4741 25.1523 19.1165 25.1523 19.9136C25.1523 20.7108 25.7813 21.3531 26.5712 21.3531Z" fill="white"/>
</svg>
