<svg width="112" height="33" viewBox="0 0 112 33" fill="none" xmlns="http://www.w3.org/2000/svg">
<path d="M61.664 28L55.084 8.4H59.284L64.072 23.464L68.832 8.4H73.06L66.452 28H61.664ZM86.9878 28L85.8118 24.472H77.9998L76.8238 28H72.6518L79.5118 8.4H84.2998L91.1878 28H86.9878ZM79.2318 20.86H84.6078L81.9198 12.852L79.2318 20.86ZM102.236 28.392C99.2867 28.392 96.8507 27.412 94.928 25.452C93.0053 23.492 92.044 21.0747 92.044 18.2C92.044 15.3067 93.0053 12.8893 94.928 10.948C96.8507 8.988 99.2867 8.008 102.236 8.008C104.009 8.008 105.643 8.428 107.136 9.268C108.648 10.0893 109.824 11.2093 110.664 12.628L107.332 14.56C106.847 13.6827 106.156 13.0013 105.26 12.516C104.364 12.012 103.356 11.76 102.236 11.76C100.332 11.76 98.792 12.3573 97.616 13.552C96.4587 14.7467 95.88 16.296 95.88 18.2C95.88 20.0853 96.4587 21.6253 97.616 22.82C98.792 24.0147 100.332 24.612 102.236 24.612C103.356 24.612 104.364 24.3693 105.26 23.884C106.175 23.38 106.865 22.6987 107.332 21.84L110.664 23.772C109.824 25.1907 108.657 26.32 107.164 27.16C105.671 27.9813 104.028 28.392 102.236 28.392Z" fill="#7380FF"/>
<path fill-rule="evenodd" clip-rule="evenodd" d="M19.8913 12.5066H7.4589L0 4.99508e-09H8.89149C9.97098 -4.32261e-05 11.032 0.28053 11.9709 0.814305C12.9099 1.34808 13.6945 2.1168 14.2483 3.04536L19.8913 12.5066V12.5066Z" fill="#D2D6FF"/>
<path fill-rule="evenodd" clip-rule="evenodd" d="M35.6714 2.99533L29.8768 12.5066H7.40918L16.9193 28.2515C17.4754 29.172 18.259 29.9331 19.1945 30.4612C20.1299 30.9894 21.1855 31.2668 22.2592 31.2665H27.6972C28.7786 31.2664 29.8414 30.9846 30.7815 30.4488C31.7215 29.9131 32.5064 29.1417 33.0594 28.2104L42.3805 12.5066L49.9999 6.80606e-10H40.9979C39.9283 -1.58107e-05 38.8767 0.275459 37.9439 0.799984C37.0112 1.32451 36.2286 2.08048 35.6714 2.99533V2.99533Z" fill="#7380FF"/>
</svg>
